# xmcd
#
# Track frame offsets:
#	150
#	25575
#	51175
#	73475
#	86725
#	111475
#	137900
#	156550
#	175175
#	197550
#	223225
#	248975
#	270050
#	294875
#
# Disc length: 4329
#
# Revision: 1
# Processed by: cddbd v1.5.1PL0 Copyright (c) Steve Scherf et al.
# Submitted via: CDex 1.40Beta9
# Normalized: r0:TDELIM( - )
#
DISCID=d510e70e
DTITLE=The art Hodes Trio - GHS-Edition 1
DYEAR=1991
DGENRE=Blues
TTITLE0=Trio - CC Rider blues (live 1991)
TTITLE1=Trio - Millenburg Joys
TTITLE2=Duo - New down home blues
TTITLE3=Trio - Gotta see mama every night
TTITLE4=Trio - The wolverines
TTITLE5=Duo - the glory of love
TTITLE6=Duo - I wish´t I was in peoria
TTITLE7=Trio - Doctor Jazz
TTITLE8=Duo - Tin roof blues
TTITLE9=Trio - some of these days
TTITLE10=Duo - Revolutionary blues
TTITLE11=Duo - old stack o´lee blues
TTITLE12=Trio - Down in honky tonk town
TTITLE13=Trio - Melancholy
EXTD=YEAR: 1991 ID3G: 0
EXTT0=
EXTT1=
EXTT2=
EXTT3=
EXTT4=
EXTT5=
EXTT6=
EXTT7=
EXTT8=
EXTT9=
EXTT10=
EXTT11=
EXTT12=
EXTT13=
PLAYORDER=
